<svg width="25" height="26" viewBox="0 0 25 26" fill="none" xmlns="http://www.w3.org/2000/svg">
    <mask id="path-1-outside-1_791_2125" maskUnits="userSpaceOnUse" x="5.12402" y="3.38867"
        width="15" height="19" fill="black">
        <rect fill="white" x="5.12402" y="3.38867" width="15" height="19" />
        <path fillRule="evenodd" clipRule="evenodd"
            d="M12.8424 4.4186C12.7891 4.40938 12.7361 4.4002 12.6842 4.38867H12.3226C12.3014 4.39576 12.2801 4.40285 12.2588 4.40285C10.9757 4.54464 10.1037 5.83488 10.4511 7.08258C10.4845 7.20659 10.5339 7.32418 10.5843 7.44399C10.6088 7.50226 10.6335 7.56105 10.6567 7.62137C10.6524 7.62351 10.6474 7.62631 10.642 7.62936C10.6296 7.63639 10.6148 7.64478 10.6 7.64972C10.0683 7.88367 9.60038 8.20268 9.1892 8.61386C8.23215 9.578 7.7359 10.7335 7.71464 12.0947C7.70755 12.9099 7.51614 13.6756 7.08369 14.3703C6.95297 14.5822 6.81078 14.7912 6.66806 15.001C6.58633 15.1211 6.50442 15.2415 6.4244 15.3628C6.26134 15.6039 6.16918 15.8662 6.13374 16.1497C6.04867 16.9012 6.53073 17.6526 7.25384 17.8724C7.87769 18.0567 8.51572 18.1914 9.16084 18.2978C9.99028 18.4325 10.8197 18.5104 11.6563 18.5388C12.6913 18.5742 13.7263 18.553 14.7543 18.4466C15.7184 18.3474 16.6683 18.1702 17.6041 17.9149C17.8948 17.837 18.15 17.7094 18.3698 17.5038C18.944 16.9437 19.0432 16.0717 18.5966 15.3841L18.1287 14.6823C17.6538 13.9733 17.4056 13.1935 17.3915 12.3428L17.3914 12.3393C17.3843 12.0285 17.3771 11.7107 17.3276 11.3999C17.0795 9.83321 16.2643 8.64222 14.896 7.83404C14.7696 7.76324 14.6396 7.69965 14.5085 7.63556C14.4558 7.60981 14.403 7.58398 14.3502 7.55756C14.3523 7.55327 14.3551 7.54833 14.3582 7.54293C14.3652 7.53051 14.3736 7.51568 14.3785 7.50085C15.0095 6.28859 14.3856 4.84238 13.0741 4.46665C12.9984 4.44562 12.9201 4.43207 12.8424 4.4186ZM12.8437 17.1396C12.7338 17.1427 12.624 17.1458 12.5141 17.1493L12.5282 17.1422C11.5641 17.1351 10.6141 17.0784 9.66418 16.9366C9.01197 16.8445 8.37394 16.7098 7.74299 16.5325C7.56576 16.4829 7.50196 16.3199 7.6083 16.1639C7.70755 16.0115 7.81034 15.8591 7.91314 15.7066C8.01593 15.5542 8.11872 15.4018 8.21797 15.2494C8.70713 14.4979 9.00488 13.6756 9.10413 12.7823C9.1254 12.5484 9.13957 12.3144 9.13957 12.0805C9.16084 10.5847 10.1321 9.25898 11.5499 8.79818C12.826 8.37991 14.2793 8.80527 15.1371 9.83321C15.7113 10.5209 15.9878 11.3149 15.9878 12.2081C15.9807 13.2219 16.2075 14.1789 16.718 15.0651C16.8493 15.2928 16.9942 15.5124 17.1393 15.7322C17.2291 15.8683 17.3189 16.0044 17.4056 16.1426C17.434 16.1852 17.4623 16.2419 17.4694 16.2986C17.4836 16.4049 17.4127 16.5042 17.2993 16.5325L17.2992 16.5326C16.803 16.6531 16.3068 16.7736 15.8035 16.8728C15.1512 16.9933 14.492 17.0642 13.8327 17.0997C13.503 17.1209 13.1734 17.1303 12.8437 17.1396ZM12.4999 5.80652C12.8898 5.80652 13.2088 6.12554 13.2088 6.51544C13.2088 6.90535 12.8898 7.22437 12.4999 7.22437C12.11 7.22437 11.791 6.89826 11.791 6.50835C11.791 6.12554 12.1171 5.80652 12.4999 5.80652ZM10.9971 20.5165C11.3374 21.0765 11.8478 21.3601 12.5 21.3885H12.5071C13.1593 21.3601 13.6697 21.0765 14.01 20.5165C14.1092 20.3605 14.1305 20.1833 14.088 19.999C14.0171 19.7083 13.8257 19.524 13.5279 19.4673C13.2302 19.4106 12.9891 19.524 12.8048 19.7721C12.7623 19.8359 12.6985 19.8997 12.6276 19.9352C12.4858 20.0061 12.3015 19.9423 12.1952 19.7721C11.9896 19.446 11.5571 19.3539 11.231 19.5594C10.9049 19.7579 10.7986 20.1833 10.9971 20.5165Z" />
    </mask>
    <path fillRule="evenodd" clipRule="evenodd"
        d="M12.8424 4.4186C12.7891 4.40938 12.7361 4.4002 12.6842 4.38867H12.3226C12.3014 4.39576 12.2801 4.40285 12.2588 4.40285C10.9757 4.54464 10.1037 5.83488 10.4511 7.08258C10.4845 7.20659 10.5339 7.32418 10.5843 7.44399C10.6088 7.50226 10.6335 7.56105 10.6567 7.62137C10.6524 7.62351 10.6474 7.62631 10.642 7.62936C10.6296 7.63639 10.6148 7.64478 10.6 7.64972C10.0683 7.88367 9.60038 8.20268 9.1892 8.61386C8.23215 9.578 7.7359 10.7335 7.71464 12.0947C7.70755 12.9099 7.51614 13.6756 7.08369 14.3703C6.95297 14.5822 6.81078 14.7912 6.66806 15.001C6.58633 15.1211 6.50442 15.2415 6.4244 15.3628C6.26134 15.6039 6.16918 15.8662 6.13374 16.1497C6.04867 16.9012 6.53073 17.6526 7.25384 17.8724C7.87769 18.0567 8.51572 18.1914 9.16084 18.2978C9.99028 18.4325 10.8197 18.5104 11.6563 18.5388C12.6913 18.5742 13.7263 18.553 14.7543 18.4466C15.7184 18.3474 16.6683 18.1702 17.6041 17.9149C17.8948 17.837 18.15 17.7094 18.3698 17.5038C18.944 16.9437 19.0432 16.0717 18.5966 15.3841L18.1287 14.6823C17.6538 13.9733 17.4056 13.1935 17.3915 12.3428L17.3914 12.3393C17.3843 12.0285 17.3771 11.7107 17.3276 11.3999C17.0795 9.83321 16.2643 8.64222 14.896 7.83404C14.7696 7.76324 14.6396 7.69965 14.5085 7.63556C14.4558 7.60981 14.403 7.58398 14.3502 7.55756C14.3523 7.55327 14.3551 7.54833 14.3582 7.54293C14.3652 7.53051 14.3736 7.51568 14.3785 7.50085C15.0095 6.28859 14.3856 4.84238 13.0741 4.46665C12.9984 4.44562 12.9201 4.43207 12.8424 4.4186ZM12.8437 17.1396C12.7338 17.1427 12.624 17.1458 12.5141 17.1493L12.5282 17.1422C11.5641 17.1351 10.6141 17.0784 9.66418 16.9366C9.01197 16.8445 8.37394 16.7098 7.74299 16.5325C7.56576 16.4829 7.50196 16.3199 7.6083 16.1639C7.70755 16.0115 7.81034 15.8591 7.91314 15.7066C8.01593 15.5542 8.11872 15.4018 8.21797 15.2494C8.70713 14.4979 9.00488 13.6756 9.10413 12.7823C9.1254 12.5484 9.13957 12.3144 9.13957 12.0805C9.16084 10.5847 10.1321 9.25898 11.5499 8.79818C12.826 8.37991 14.2793 8.80527 15.1371 9.83321C15.7113 10.5209 15.9878 11.3149 15.9878 12.2081C15.9807 13.2219 16.2075 14.1789 16.718 15.0651C16.8493 15.2928 16.9942 15.5124 17.1393 15.7322C17.2291 15.8683 17.3189 16.0044 17.4056 16.1426C17.434 16.1852 17.4623 16.2419 17.4694 16.2986C17.4836 16.4049 17.4127 16.5042 17.2993 16.5325L17.2992 16.5326C16.803 16.6531 16.3068 16.7736 15.8035 16.8728C15.1512 16.9933 14.492 17.0642 13.8327 17.0997C13.503 17.1209 13.1734 17.1303 12.8437 17.1396ZM12.4999 5.80652C12.8898 5.80652 13.2088 6.12554 13.2088 6.51544C13.2088 6.90535 12.8898 7.22437 12.4999 7.22437C12.11 7.22437 11.791 6.89826 11.791 6.50835C11.791 6.12554 12.1171 5.80652 12.4999 5.80652ZM10.9971 20.5165C11.3374 21.0765 11.8478 21.3601 12.5 21.3885H12.5071C13.1593 21.3601 13.6697 21.0765 14.01 20.5165C14.1092 20.3605 14.1305 20.1833 14.088 19.999C14.0171 19.7083 13.8257 19.524 13.5279 19.4673C13.2302 19.4106 12.9891 19.524 12.8048 19.7721C12.7623 19.8359 12.6985 19.8997 12.6276 19.9352C12.4858 20.0061 12.3015 19.9423 12.1952 19.7721C11.9896 19.446 11.5571 19.3539 11.231 19.5594C10.9049 19.7579 10.7986 20.1833 10.9971 20.5165Z"
        fill="#ED747B" />
    <path
        d="M12.6842 4.38867L12.7384 4.14463L12.7116 4.13867H12.6842V4.38867ZM12.8424 4.4186L12.7997 4.66494L12.7997 4.66494L12.8424 4.4186ZM12.3226 4.38867V4.13867H12.2821L12.2436 4.1515L12.3226 4.38867ZM12.2588 4.40285V4.15285H12.2451L12.2314 4.15436L12.2588 4.40285ZM10.4511 7.08258L10.6925 7.01759L10.6919 7.01553L10.4511 7.08258ZM10.5843 7.44399L10.3538 7.54087L10.3538 7.54087L10.5843 7.44399ZM10.6567 7.62137L10.7685 7.84497L10.9715 7.74347L10.89 7.53162L10.6567 7.62137ZM10.642 7.62936L10.7651 7.84695L10.7651 7.84695L10.642 7.62936ZM10.6 7.64972L10.5209 7.41255L10.5099 7.41622L10.4993 7.42089L10.6 7.64972ZM9.1892 8.61386L9.01242 8.43708L9.01177 8.43774L9.1892 8.61386ZM7.71464 12.0947L7.46466 12.0908L7.46465 12.0925L7.71464 12.0947ZM7.08369 14.3703L6.87145 14.2382L6.87094 14.239L7.08369 14.3703ZM6.66806 15.001L6.87476 15.1416H6.87476L6.66806 15.001ZM6.4244 15.3628L6.63148 15.5029L6.63309 15.5005L6.4244 15.3628ZM6.13374 16.1497L5.88565 16.1187L5.88532 16.1216L6.13374 16.1497ZM7.25384 17.8724L7.18114 18.1116L7.183 18.1122L7.25384 17.8724ZM9.16084 18.2978L9.12018 18.5444L9.12077 18.5445L9.16084 18.2978ZM11.6563 18.5388L11.6648 18.2889L11.6647 18.2889L11.6563 18.5388ZM14.7543 18.4466L14.7287 18.198L14.7285 18.198L14.7543 18.4466ZM17.6041 17.9149L17.5393 17.6735L17.5383 17.6738L17.6041 17.9149ZM18.3698 17.5038L18.5406 17.6864L18.5443 17.6827L18.3698 17.5038ZM18.5966 15.3841L18.8063 15.2479L18.8046 15.2454L18.5966 15.3841ZM18.1287 14.6823L18.3367 14.5436L18.3364 14.5431L18.1287 14.6823ZM17.3915 12.3428L17.6414 12.3386L17.6414 12.3371L17.3915 12.3428ZM17.3914 12.3393L17.1414 12.345L17.1414 12.345L17.3914 12.3393ZM17.3276 11.3999L17.0807 11.439L17.0808 11.4392L17.3276 11.3999ZM14.896 7.83404L15.0232 7.61873L15.0182 7.61592L14.896 7.83404ZM14.5085 7.63556L14.6183 7.41097V7.41097L14.5085 7.63556ZM14.3502 7.55756L14.1266 7.44574L14.0147 7.66936L14.2384 7.78117L14.3502 7.55756ZM14.3582 7.54293L14.5757 7.66604L14.5758 7.66603L14.3582 7.54293ZM14.3785 7.50085L14.1568 7.38543L14.1476 7.403L14.1414 7.42179L14.3785 7.50085ZM13.0741 4.46665L13.143 4.22631L13.141 4.22577L13.0741 4.46665ZM12.5141 17.1493L12.4022 16.9257L12.5221 17.3992L12.5141 17.1493ZM12.8437 17.1396L12.8367 16.8897H12.8367L12.8437 17.1396ZM12.5282 17.1422L12.64 17.3658L12.5301 16.8922L12.5282 17.1422ZM9.66418 16.9366L9.70108 16.6894L9.69916 16.6891L9.66418 16.9366ZM7.74299 16.5325L7.8106 16.2919L7.8104 16.2918L7.74299 16.5325ZM7.6083 16.1639L7.8149 16.3048L7.8178 16.3003L7.6083 16.1639ZM7.91314 15.7066L7.70587 15.5669L7.70587 15.5669L7.91314 15.7066ZM8.21797 15.2494L8.42747 15.3858L8.42749 15.3858L8.21797 15.2494ZM9.10413 12.7823L9.35265 12.8099L9.3531 12.805L9.10413 12.7823ZM9.13957 12.0805L8.88957 12.0769V12.0805H9.13957ZM11.5499 8.79818L11.6272 9.03594L11.6278 9.03574L11.5499 8.79818ZM15.1371 9.83321L14.9451 9.99339L14.9452 9.99345L15.1371 9.83321ZM15.9878 12.2081L16.2378 12.2099V12.2081H15.9878ZM16.718 15.0651L16.5013 15.1898L16.5014 15.19L16.718 15.0651ZM17.1393 15.7322L16.9306 15.8699L16.9306 15.8699L17.1393 15.7322ZM17.4056 16.1426L17.1938 16.2756L17.1976 16.2813L17.4056 16.1426ZM17.4694 16.2986L17.2214 16.3296L17.2216 16.3316L17.4694 16.2986ZM17.2993 16.5325L17.3569 16.7758L17.3599 16.7751L17.2993 16.5325ZM17.2992 16.5326L17.2416 16.2893L17.2402 16.2896L17.2992 16.5326ZM15.8035 16.8728L15.8489 17.1187L15.8518 17.1181L15.8035 16.8728ZM13.8327 17.0997L13.8192 16.85L13.8166 16.8502L13.8327 17.0997ZM12.5 21.3885L12.4891 21.6385H12.5V21.3885ZM10.9971 20.5165L10.7823 20.6444L10.7834 20.6463L10.9971 20.5165ZM12.5071 21.3885V21.6387L12.5179 21.6382L12.5071 21.3885ZM14.01 20.5165L13.799 20.3822L13.7963 20.3867L14.01 20.5165ZM14.088 19.999L14.3316 19.9428L14.3309 19.9397L14.088 19.999ZM13.5279 19.4673L13.5747 19.2217H13.5747L13.5279 19.4673ZM12.8048 19.7721L12.6039 19.6228L12.5968 19.6334L12.8048 19.7721ZM12.6276 19.9352L12.5158 19.7116L12.5158 19.7116L12.6276 19.9352ZM12.1952 19.7721L12.4072 19.6396L12.4066 19.6388L12.1952 19.7721ZM11.231 19.5594L11.361 19.773L11.3643 19.7709L11.231 19.5594ZM12.63 4.63272C12.6886 4.64574 12.7475 4.6559 12.7997 4.66494L12.885 4.17227C12.8307 4.16287 12.7836 4.15465 12.7384 4.14463L12.63 4.63272ZM12.3226 4.63867H12.6842V4.13867H12.3226V4.63867ZM12.2588 4.65285C12.328 4.65285 12.3888 4.63013 12.4017 4.62584L12.2436 4.1515C12.2379 4.1534 12.2348 4.15442 12.2321 4.15526C12.2297 4.15603 12.2293 4.1561 12.2301 4.15588C12.2314 4.15557 12.2422 4.15285 12.2588 4.15285V4.65285ZM10.6919 7.01553C10.3858 5.91587 11.1568 4.77615 12.2863 4.65134L12.2314 4.15436C10.7946 4.31312 9.82165 5.75389 10.2102 7.14964L10.6919 7.01553ZM10.8147 7.34711C10.7633 7.22468 10.7208 7.12257 10.6925 7.01759L10.2097 7.14758C10.2482 7.29062 10.3045 7.42368 10.3538 7.54087L10.8147 7.34711ZM10.89 7.53162C10.8652 7.46713 10.839 7.40483 10.8147 7.34711L10.3538 7.54087C10.3785 7.59969 10.4017 7.65497 10.4233 7.71111L10.89 7.53162ZM10.7651 7.84695C10.7681 7.84527 10.7695 7.84452 10.7705 7.84395C10.7715 7.8434 10.7705 7.84394 10.7685 7.84497L10.5449 7.39776C10.5336 7.40337 10.5226 7.4097 10.5189 7.41177L10.7651 7.84695ZM10.679 7.88689C10.7208 7.87296 10.7568 7.85167 10.7651 7.84695L10.5189 7.41177C10.5157 7.41363 10.5137 7.41473 10.5119 7.41574C10.5102 7.41667 10.5094 7.41708 10.5092 7.41718C10.509 7.41728 10.5098 7.41684 10.5116 7.41608C10.5133 7.41534 10.5165 7.41403 10.5209 7.41255L10.679 7.88689ZM9.36598 8.79064C9.75506 8.40155 10.1971 8.10011 10.7006 7.87855L10.4993 7.42089C9.93943 7.66722 9.44569 8.00382 9.01242 8.43708L9.36598 8.79064ZM7.96461 12.0986C7.98485 10.8032 8.45428 9.70909 9.36663 8.78998L9.01177 8.43774C8.01002 9.44691 7.48696 10.6638 7.46467 12.0908L7.96461 12.0986ZM7.29594 14.5024C7.75597 13.7634 7.9572 12.9514 7.96463 12.0969L7.46465 12.0925C7.4579 12.8685 7.27631 13.5878 6.87145 14.2382L7.29594 14.5024ZM6.87476 15.1416C7.01692 14.9326 7.1623 14.719 7.29645 14.5016L6.87094 14.239C6.74364 14.4454 6.60465 14.6497 6.46137 14.8603L6.87476 15.1416ZM6.63309 15.5005C6.71196 15.3809 6.79286 15.262 6.87476 15.1416L6.46137 14.8603C6.3798 14.9802 6.29688 15.1021 6.2157 15.2252L6.63309 15.5005ZM6.38181 16.1807C6.41279 15.9329 6.49231 15.7086 6.63147 15.5029L6.21732 15.2227C6.03038 15.4991 5.92558 15.7994 5.88567 16.1187L6.38181 16.1807ZM7.32653 17.6332C6.72164 17.4494 6.31031 16.8124 6.38215 16.1778L5.88532 16.1216C5.78702 16.9899 6.33983 17.8559 7.18114 18.1116L7.32653 17.6332ZM9.2015 18.0511C8.5635 17.9459 7.93602 17.8133 7.32467 17.6327L7.183 18.1122C7.81936 18.3002 8.46794 18.4369 9.12018 18.5444L9.2015 18.0511ZM11.6647 18.2889C10.8382 18.2609 10.0193 18.1839 9.20092 18.051L9.12077 18.5445C9.96125 18.681 10.8013 18.76 11.6478 18.7887L11.6647 18.2889ZM14.7285 18.198C13.7142 18.3029 12.6909 18.3241 11.6648 18.2889L11.6477 18.7886C12.6917 18.8244 13.7384 18.8031 14.78 18.6953L14.7285 18.198ZM17.5383 17.6738C16.6157 17.9254 15.6792 18.1001 14.7287 18.198L14.7799 18.6953C15.7576 18.5947 16.721 18.4149 17.6699 18.1561L17.5383 17.6738ZM18.199 17.3212C18.0143 17.4939 17.7978 17.6041 17.5393 17.6735L17.6689 18.1564C17.9918 18.0698 18.2857 17.9248 18.5406 17.6863L18.199 17.3212ZM18.387 15.5203C18.7692 16.1088 18.6834 16.8487 18.1952 17.3248L18.5443 17.6827C19.2046 17.0387 19.3173 16.0347 18.8063 15.2479L18.387 15.5203ZM17.9207 14.8209L18.3886 15.5228L18.8046 15.2454L18.3367 14.5436L17.9207 14.8209ZM17.1415 12.347C17.1565 13.2467 17.4198 14.0732 17.921 14.8214L18.3364 14.5431C17.8878 13.8734 17.6548 13.1404 17.6414 12.3386L17.1415 12.347ZM17.1414 12.345L17.1415 12.3485L17.6414 12.3371L17.6413 12.3336L17.1414 12.345ZM17.0808 11.4392C17.1271 11.7305 17.1343 12.0313 17.1414 12.345L17.6413 12.3336C17.6343 12.0257 17.6271 11.6909 17.5745 11.3607L17.0808 11.4392ZM14.7689 8.0493C16.0735 8.81988 16.8444 9.94659 17.0807 11.439L17.5746 11.3608C17.3147 9.71982 16.455 8.46455 15.0232 7.61879L14.7689 8.0493ZM14.3987 7.86014C14.5308 7.92475 14.6545 7.98534 14.7739 8.05217L15.0182 7.61592C14.8847 7.54114 14.7483 7.47455 14.6183 7.41097L14.3987 7.86014ZM14.2384 7.78117C14.2923 7.80816 14.3462 7.83447 14.3987 7.86014L14.6183 7.41097C14.5655 7.38514 14.5136 7.35979 14.462 7.33396L14.2384 7.78117ZM14.1406 7.41982C14.1385 7.42349 14.1322 7.43453 14.1266 7.44574L14.5738 7.66939C14.5727 7.67144 14.5722 7.67238 14.5728 7.67137C14.5733 7.67035 14.5741 7.669 14.5757 7.66604L14.1406 7.41982ZM14.1414 7.42179C14.1428 7.41735 14.1441 7.41417 14.1449 7.41247C14.1456 7.41073 14.1461 7.40986 14.146 7.41006C14.1459 7.41026 14.1455 7.41106 14.1445 7.41276C14.1435 7.41459 14.1424 7.41655 14.1406 7.41983L14.5758 7.66603C14.5805 7.6577 14.6018 7.62171 14.6157 7.5799L14.1414 7.42179ZM13.0053 4.70699C14.165 5.03924 14.7146 6.31365 14.1568 7.38543L14.6003 7.61627C15.3043 6.26353 14.6062 4.64553 13.143 4.22632L13.0053 4.70699ZM12.7997 4.66494C12.8796 4.67877 12.9455 4.69039 13.0072 4.70753L13.141 4.22577C13.0513 4.20084 12.9607 4.18537 12.885 4.17227L12.7997 4.66494ZM12.5221 17.3992C12.6314 17.3957 12.7408 17.3926 12.8508 17.3895L12.8367 16.8897C12.7269 16.8928 12.6165 16.8959 12.506 16.8994L12.5221 17.3992ZM12.4164 16.9186L12.4022 16.9257L12.6259 17.3729L12.64 17.3658L12.4164 16.9186ZM9.62727 17.1839C10.5917 17.3278 11.5538 17.3851 12.5264 17.3922L12.5301 16.8922C11.5744 16.8852 10.6366 16.829 9.70108 16.6894L9.62727 17.1839ZM7.67539 16.7732C8.31691 16.9534 8.96584 17.0904 9.6292 17.1842L9.69916 16.6891C9.05809 16.5985 8.43096 16.4661 7.8106 16.2919L7.67539 16.7732ZM7.40174 16.0231C7.31191 16.1548 7.27668 16.3191 7.3351 16.4755C7.39308 16.6309 7.52576 16.7313 7.67559 16.7733L7.8104 16.2918C7.79647 16.2879 7.79231 16.2839 7.79355 16.285C7.79512 16.2863 7.80004 16.2914 7.80352 16.3007C7.80514 16.305 7.80605 16.3093 7.8064 16.3131C7.80675 16.3169 7.80648 16.3195 7.80629 16.3206C7.8059 16.323 7.80621 16.3174 7.81485 16.3047L7.40174 16.0231ZM7.70587 15.5669C7.60327 15.719 7.49934 15.8731 7.3988 16.0275L7.8178 16.3003C7.91576 16.1499 8.01741 15.9991 8.12041 15.8464L7.70587 15.5669ZM8.00847 15.113C7.91051 15.2634 7.80886 15.4141 7.70587 15.5669L8.12041 15.8464C8.223 15.6943 8.32694 15.5402 8.42747 15.3858L8.00847 15.113ZM8.85566 12.7547C8.76078 13.6086 8.47662 14.3938 8.00845 15.113L8.42749 15.3858C8.93764 14.6021 9.24898 13.7425 9.3526 12.8099L8.85566 12.7547ZM8.88957 12.0805C8.88957 12.3045 8.87599 12.5305 8.85515 12.7597L9.3531 12.805C9.3748 12.5663 9.38957 12.3243 9.38957 12.0805H8.88957ZM11.4726 8.56042C9.95215 9.05458 8.91237 10.4751 8.8896 12.0769L9.38955 12.0841C9.40931 10.6943 10.312 9.46338 11.6272 9.03594L11.4726 8.56042ZM15.329 9.67303C14.4063 8.56731 12.8464 8.11012 11.472 8.56062L11.6278 9.03574C12.8055 8.64971 14.1522 9.04323 14.9451 9.99339L15.329 9.67303ZM16.2378 12.2081C16.2378 11.2585 15.9421 10.4072 15.329 9.67297L14.9452 9.99345C15.4805 10.6345 15.7378 11.3712 15.7378 12.2081H16.2378ZM16.9346 14.9403C16.4483 14.0961 16.231 13.1834 16.2378 12.2099L15.7378 12.2064C15.7304 13.2603 15.9667 14.2617 16.5013 15.1898L16.9346 14.9403ZM17.348 15.5945C17.2022 15.3736 17.0615 15.1603 16.9345 14.9401L16.5014 15.19C16.6372 15.4253 16.7863 15.6511 16.9306 15.8699L17.348 15.5945ZM17.6174 16.0098C17.5289 15.8687 17.4375 15.7302 17.348 15.5945L16.9306 15.8699C17.0207 16.0063 17.1089 16.1401 17.1939 16.2755L17.6174 16.0098ZM17.7175 16.2676C17.7036 16.1564 17.6524 16.0621 17.6136 16.004L17.1976 16.2813C17.205 16.2924 17.2115 16.3041 17.2161 16.3147C17.2209 16.3257 17.2215 16.3307 17.2214 16.3296L17.7175 16.2676ZM17.3599 16.7751C17.5837 16.7191 17.75 16.5109 17.7172 16.2656L17.2216 16.3316C17.2199 16.3187 17.2239 16.3063 17.2297 16.2983C17.2352 16.2906 17.2402 16.2896 17.2387 16.29L17.3599 16.7751ZM17.3568 16.7758L17.3569 16.7758L17.2417 16.2893L17.2416 16.2893L17.3568 16.7758ZM15.8518 17.1181C16.3614 17.0176 16.8628 16.8958 17.3582 16.7755L17.2402 16.2896C16.7431 16.4103 16.2522 16.5295 15.7551 16.6275L15.8518 17.1181ZM13.8461 17.3493C14.5142 17.3134 15.1844 17.2415 15.8489 17.1187L15.758 16.627C15.1181 16.7452 14.4697 16.8151 13.8192 16.85L13.8461 17.3493ZM12.8508 17.3895C13.1797 17.3802 13.5138 17.3708 13.8487 17.3492L13.8166 16.8502C13.4922 16.8711 13.1671 16.8803 12.8367 16.8897L12.8508 17.3895ZM13.4588 6.51544C13.4588 5.98746 13.0279 5.55652 12.4999 5.55652V6.05652C12.7517 6.05652 12.9588 6.26361 12.9588 6.51544H13.4588ZM12.4999 7.47437C13.0279 7.47437 13.4588 7.04342 13.4588 6.51544H12.9588C12.9588 6.76728 12.7517 6.97437 12.4999 6.97437V7.47437ZM11.541 6.50835C11.541 7.03309 11.9687 7.47437 12.4999 7.47437V6.97437C12.2513 6.97437 12.041 6.76343 12.041 6.50835H11.541ZM12.4999 5.55652C11.9822 5.55652 11.541 5.98423 11.541 6.50835H12.041C12.041 6.26685 12.2519 6.05652 12.4999 6.05652V5.55652ZM12.5108 21.1387C11.937 21.1138 11.5051 20.8712 11.2107 20.3867L10.7834 20.6463C11.1696 21.2819 11.7585 21.6065 12.4891 21.6382L12.5108 21.1387ZM12.5071 21.1385H12.5V21.6385H12.5071V21.1385ZM13.7963 20.3867C13.5019 20.8712 13.0701 21.1138 12.4962 21.1387L12.5179 21.6382C13.2485 21.6065 13.8375 21.2819 14.2237 20.6463L13.7963 20.3867ZM13.8444 20.0552C13.8742 20.1844 13.8571 20.2911 13.7991 20.3823L14.2209 20.6507C14.3614 20.4299 14.3868 20.1822 14.3316 19.9428L13.8444 20.0552ZM13.4812 19.7129C13.5898 19.7336 13.6663 19.7747 13.7206 19.8264C13.7749 19.8782 13.8193 19.9523 13.8451 20.0582L14.3309 19.9397C14.2858 19.755 14.199 19.5916 14.0655 19.4644C13.9319 19.3371 13.7638 19.2577 13.5747 19.2217L13.4812 19.7129ZM13.0055 19.9212C13.0776 19.8242 13.1513 19.766 13.2233 19.7347C13.2935 19.7043 13.3767 19.693 13.4812 19.7129L13.5747 19.2217C13.3814 19.1849 13.1952 19.2019 13.0243 19.276C12.8553 19.3494 12.7164 19.4719 12.6041 19.623L13.0055 19.9212ZM12.7394 20.1588C12.8584 20.0993 12.9526 20.0011 13.0128 19.9108L12.5968 19.6334C12.5719 19.6707 12.5385 19.7002 12.5158 19.7116L12.7394 20.1588ZM11.9832 19.9046C12.1384 20.1529 12.4522 20.3024 12.7394 20.1588L12.5158 19.7116C12.5134 19.7128 12.5042 19.7167 12.4844 19.7094C12.4639 19.7019 12.4336 19.6819 12.4072 19.6396L11.9832 19.9046ZM11.3643 19.7709C11.5768 19.637 11.8537 19.6993 11.9837 19.9054L12.4066 19.6388C12.1254 19.1927 11.5374 19.0708 11.0977 19.348L11.3643 19.7709ZM11.2118 20.3885C11.0831 20.1724 11.1528 19.8997 11.361 19.773L11.101 19.3459C10.657 19.6162 10.5141 20.1942 10.7823 20.6444L11.2118 20.3885Z"
        fill="#ED747B" mask="url(#path-1-outside-1_791_2125)" />
</svg>