<svg width="26" height="26" viewBox="0 0 26 26" fill="none" xmlns="http://www.w3.org/2000/svg">
    <path
        d="M20.8826 21.6298H7.13973C7.03768 21.6162 6.93563 21.5958 6.83357 21.5822C5.75863 21.4053 4.83337 20.5413 4.58844 19.4799C4.55443 19.3166 4.53402 19.1534 4.5 18.9901C4.5 14.4114 4.5 9.83268 4.5 5.25397C4.5 5.23356 4.51361 5.21315 4.52041 5.19274C4.59525 4.9138 4.77214 4.7233 5.05108 4.66207C5.34362 4.59404 5.58855 4.68929 5.77224 4.92741C5.8879 5.07028 5.91511 5.24036 5.91511 5.41725C5.91511 9.83948 5.91511 14.2617 5.91511 18.6839C5.91511 18.7247 5.91511 18.7656 5.91511 18.8064C5.92872 19.5003 6.39816 20.0718 7.0853 20.1875C7.36424 20.2351 7.65679 20.2079 7.94253 20.2215C7.96975 20.2215 8.00376 20.2215 8.04458 20.2215C8.04458 20.1739 8.04458 20.1331 8.04458 20.0922C8.04458 15.6904 8.04458 11.2954 8.04458 6.8936C8.04458 6.85278 8.04458 6.81196 8.04458 6.77114C8.05819 5.97513 8.6705 5.36283 9.4733 5.36283C9.95635 5.36283 10.4326 5.36283 10.9156 5.36283C11.283 5.36283 11.6028 5.5057 11.8613 5.75743C12.1607 6.04997 12.2899 6.41055 12.2899 6.82556C12.2899 11.2546 12.2899 15.6836 12.2899 20.1195C12.2899 20.192 12.3262 20.2283 12.3988 20.2283C13.2764 20.2283 14.1541 20.2283 15.0317 20.2283C15.0657 20.2283 15.0929 20.2283 15.1338 20.2283V20.1058C15.1338 17.5546 15.1338 15.0033 15.1338 12.4588C15.1338 11.6492 15.7529 11.0233 16.5693 11.0233C17.0251 11.0233 17.4877 11.0233 17.9436 11.0233C18.066 11.0233 18.1885 11.0369 18.3041 11.0641C18.9437 11.2206 19.3791 11.7853 19.3791 12.4588C19.3791 15.0101 19.3791 17.5614 19.3791 20.1195V20.2283C19.4267 20.2283 19.4539 20.2283 19.4879 20.2283C19.9302 20.2283 20.3792 20.2283 20.8214 20.2283C21.1684 20.2283 21.4473 20.5004 21.495 20.8542C21.5358 21.174 21.3249 21.5005 21.0119 21.6026C20.9711 21.6162 20.9303 21.6298 20.8894 21.6366L20.8826 21.6298Z"
        fill="#ED747B" />
</svg>