<svg width="25" height="26" viewBox="0 0 25 26" fill="none" xmlns="http://www.w3.org/2000/svg">
    <path fillRule="evenodd" clipRule="evenodd"
        d="M8.75295 4.38867H16.2674C16.3774 4.40868 16.4875 4.41869 16.6076 4.4387C18.1585 4.69885 19.3392 6.04965 19.3392 7.62057C19.3392 10.5423 19.3392 13.464 19.3392 16.3857V18.1368C19.3392 18.467 19.2892 18.7871 19.1791 19.1073C18.7188 20.4981 17.4881 21.3887 16.0272 21.3887H13.5057C13.1155 21.3887 12.7353 21.3887 12.3451 21.3887C11.1844 21.3887 10.0337 21.3887 8.88303 21.3887C8.35272 21.3887 7.84242 21.2486 7.38215 20.9784C6.25148 20.3381 5.67114 19.3475 5.66113 18.0567C5.66113 14.6147 5.66113 11.1727 5.66113 7.73064C5.66113 7.48049 5.68114 7.22034 5.74118 6.97019C6.08138 5.65942 6.90186 4.82893 8.21263 4.47872C8.3327 4.44871 8.45278 4.4287 8.57285 4.41869C8.63288 4.41869 8.69292 4.39868 8.75295 4.38867ZM7.62229 11.2327V18.0767C7.62229 18.1368 7.62229 18.1968 7.62229 18.2468C7.72235 18.9272 8.31269 19.4375 8.99309 19.4375C9.57343 19.4375 10.1638 19.4375 10.7441 19.4375C12.4952 19.4375 14.2562 19.4375 16.0072 19.4375C16.6576 19.4375 17.398 18.8672 17.398 18.0367C17.398 15.8854 17.398 13.7342 17.398 11.5829C17.398 10.2921 17.398 9.00138 17.398 7.71063C17.398 7.59056 17.388 7.48049 17.358 7.37043C17.2179 6.77007 16.6476 6.32981 16.0072 6.32981H12.9154C12.9154 6.32981 12.8654 6.32981 12.8253 6.32981V11.2227H7.62229V11.2327ZM10.8642 6.34983C10.8642 6.34983 10.8442 6.34983 10.8342 6.34983C10.8342 6.34983 10.8242 6.34983 10.8142 6.34983C10.6241 6.34983 10.4439 6.34983 10.2538 6.34983C9.82358 6.34983 9.38332 6.34983 8.95307 6.34983C8.20263 6.36984 7.61228 6.9902 7.61228 7.73064V9.25153H10.8542V6.34983H10.8642ZM8.63288 14.7848V12.8236H15.657V14.7848H8.63288ZM8.63288 18.1868H15.657V16.2256H8.63288V18.1868Z"
        fill="#ED747B" />
</svg>