<svg width="26" height="26" viewBox="0 0 26 26" fill="none" xmlns="http://www.w3.org/2000/svg">
<path d="M5.43749 4.75C6.06988 4.75 6.70227 4.75 7.33466 4.75C8.10305 5.0016 8.49744 5.53879 8.59264 6.33437C8.65384 6.81717 8.76264 7.29316 8.85784 7.78955H9.34743C13.0874 7.78955 16.8341 7.79635 20.574 7.78275C21.1316 7.78275 21.526 7.95275 21.7504 8.47634V9.00673C21.7232 9.07473 21.6892 9.14273 21.6756 9.21073C21.3968 10.6999 21.1248 12.1891 20.8528 13.6783C20.6012 15.0518 19.8465 15.6774 18.4457 15.6774C15.8685 15.6774 13.2914 15.6774 10.7074 15.6774H10.279C10.3606 16.1126 10.4354 16.4934 10.5102 16.8946H10.9522C13.441 16.8946 15.9297 16.8946 18.4185 16.8946C19.4793 16.8946 20.4108 17.5882 20.7236 18.6014C21.0432 19.6214 20.6488 20.7297 19.7581 21.3349C18.8809 21.9265 17.7249 21.8857 16.8953 21.2125C16.1065 20.5733 15.8549 19.7234 16.0317 18.7374H12.965C12.9174 19.1862 12.9446 19.6282 12.8222 20.0294C12.5162 21.0289 11.7954 21.6205 10.7618 21.7293C9.75542 21.8381 8.94623 21.4233 8.42944 20.5529C7.90585 19.6622 7.97385 18.7714 8.53824 17.9078C8.64024 17.7514 8.74904 17.5474 8.72864 17.3842C8.57224 16.3846 8.37504 15.3986 8.19825 14.4058C7.85145 12.5087 7.51146 10.6047 7.16466 8.70754C7.03547 8.00715 6.89947 7.29996 6.77027 6.58597C6.36908 6.58597 6.00188 6.59957 5.64149 6.58597C4.9819 6.53157 4.54671 5.86518 4.8459 5.30079C4.9683 5.07639 5.23349 4.9336 5.43749 4.75ZM9.95262 13.8279C10.0342 13.8415 10.0818 13.8551 10.1294 13.8551C12.9582 13.8551 15.7869 13.8551 18.6157 13.8551C18.8809 13.8551 18.9965 13.7395 19.0441 13.4811C19.1529 12.8487 19.2821 12.2163 19.3909 11.5839C19.5065 10.9311 19.6221 10.2851 19.7377 9.63232H9.19103C9.44943 11.0399 9.69422 12.4203 9.95262 13.8279ZM11.129 19.329C11.129 19.0026 10.8706 18.7238 10.5442 18.7102C10.2178 18.6966 9.93902 18.9618 9.91862 19.2882C9.89822 19.6282 10.177 19.9206 10.5238 19.9206C10.8502 19.9206 11.1222 19.6554 11.129 19.329ZM18.3981 19.9206C18.7245 19.9206 19.0033 19.6622 19.0169 19.3358C19.0305 19.0094 18.7653 18.7238 18.4389 18.7102C18.0989 18.6898 17.8065 18.9686 17.8065 19.3154C17.8065 19.6418 18.0717 19.9138 18.3981 19.9206Z" fill="#ED747B"/>
</svg>
