<svg width="25" height="26" viewBox="0 0 25 26" fill="none" xmlns="http://www.w3.org/2000/svg">
    <path fillRule="evenodd" clipRule="evenodd"
        d="M8.30986 13.7487H8.31986C8.31986 13.7487 8.30986 13.7487 8.29986 13.7487H8.30986ZM8.30986 15.4287C8.21986 14.8687 8.21986 14.3087 8.30986 13.7487C8.22986 13.7487 8.15986 13.7287 8.08986 13.7287C7.99986 13.7287 7.91986 13.7187 7.83986 13.6987C6.42986 13.4887 5.45986 12.0687 5.75986 10.6687C6.01986 9.45871 7.03986 8.62871 8.27986 8.62871H11.6499C11.7799 8.62871 11.9299 8.62871 12.0699 8.65871C13.0099 8.81871 13.6899 9.34871 14.0399 10.2287C14.3899 11.1387 14.2599 11.9987 13.6599 12.7687C13.2299 13.3187 12.6499 13.6187 11.9599 13.7087C11.9199 13.7087 11.8699 13.7387 11.8599 13.7687C11.5799 14.2987 11.5799 14.8287 11.8499 15.3687C11.8699 15.4087 11.8999 15.4187 11.9399 15.4187C11.9899 15.4187 12.0299 15.4187 12.0799 15.4087C12.2599 15.3887 12.4299 15.3787 12.6099 15.3387C14.8699 14.8887 16.3499 12.7187 15.9599 10.4487C15.6099 8.42871 13.8299 6.92871 11.7799 6.92871C10.6199 6.92871 9.45986 6.92871 8.29986 6.92871C8.07986 6.92871 7.85986 6.92871 7.64986 6.96871C6.58986 7.12871 5.70986 7.61871 5.02986 8.42871C4.19986 9.40871 3.87986 10.5187 4.03986 11.7587C4.14986 12.6087 4.49986 13.3687 5.07986 14.0087C5.83986 14.8587 6.79986 15.3287 7.92986 15.4287C8.00986 15.4287 8.09986 15.4287 8.18986 15.4287C8.22986 15.4287 8.27986 15.4287 8.31986 15.4287H8.30986ZM20.9799 15.0087C20.9799 14.9487 20.9899 14.8987 20.9999 14.8487V14.3287C20.9999 14.3287 20.9999 14.2487 20.9899 14.2087C20.9899 14.1687 20.9799 14.1287 20.9799 14.0887C20.8699 13.1587 20.4899 12.3587 19.8499 11.6787C19.1499 10.9387 18.2899 10.4987 17.2799 10.3787C17.1499 10.3587 17.0199 10.3487 16.8799 10.3487C16.8099 10.3487 16.7499 10.3487 16.6799 10.3387C16.7699 10.9087 16.7699 11.4787 16.6799 12.0287C16.7599 12.0387 16.8399 12.0487 16.9199 12.0487C16.9999 12.0487 17.0899 12.0587 17.1699 12.0787C18.6399 12.3087 19.6099 13.7987 19.2199 15.2387C18.9199 16.3687 17.9199 17.1387 16.7499 17.1387H13.3299C13.1999 17.1387 13.0699 17.1387 12.9399 17.1087C11.4699 16.8887 10.4999 15.4387 10.8499 13.9987C11.1099 12.9587 11.9799 12.1787 13.0599 12.0587C13.0999 12.0587 13.1499 12.0187 13.1599 11.9987C13.4399 11.4787 13.4399 10.9387 13.1699 10.4087C13.1499 10.3687 13.1199 10.3487 13.0699 10.3487C13.0199 10.3487 12.9799 10.3487 12.9299 10.3587C12.7499 10.3787 12.5799 10.3887 12.3999 10.4287C10.1399 10.8887 8.65986 13.0487 9.04986 15.3287C9.39986 17.3487 11.1799 18.8487 13.2399 18.8487H16.6999C16.8799 18.8487 17.0599 18.8487 17.2399 18.8187C18.0499 18.7287 18.7599 18.4287 19.3999 17.9287C20.2299 17.2587 20.7499 16.3987 20.9399 15.3387C20.9599 15.2387 20.9699 15.1287 20.9799 15.0287V15.0087Z"
        fill="#ED747B" />
</svg>