<svg width="25" height="26" viewBox="0 0 25 26" fill="none" xmlns="http://www.w3.org/2000/svg">
    <path
        d="M19.4171 20.3887H4.99316C4.99316 19.7985 4.99316 19.2142 4.99316 18.6311C5.02976 18.5213 5.07933 18.4139 5.10176 18.3006C5.53495 16.1276 6.74717 14.5506 8.72073 13.552C8.84821 13.4871 8.96861 13.408 9.09963 13.3313C6.98443 10.8478 7.78353 8.04332 9.29321 6.64813C11.0437 5.03105 13.7561 4.95668 15.5467 6.50885C17.5651 8.25814 17.708 10.8195 15.9268 13.316C15.9492 13.3467 15.9658 13.388 15.9965 13.4069C16.0791 13.4576 16.1664 13.4989 16.2538 13.5426C18.428 14.6344 19.6414 16.4026 19.9754 18.7976C20.064 19.4314 19.9955 19.9956 19.4171 20.3887ZM7.02574 18.4942H17.9724C17.767 16.8063 16.2443 15.155 14.416 14.9083C13.1565 14.7383 11.8369 14.7383 10.5774 14.9083C8.75024 15.155 7.20751 16.8287 7.02574 18.4942ZM15.3107 10.0641C15.3048 8.5308 14.0489 7.27254 12.5168 7.26546C10.9575 7.25838 9.68154 8.5308 9.68626 10.0877C9.69099 11.6198 10.9481 12.8781 12.4813 12.8863C14.0406 12.8946 15.3166 11.621 15.3107 10.0629V10.0641Z"
        fill="#ED747B" />
</svg>